<svg width="121" height="202" viewBox="0 0 121 202" fill="none" xmlns="http://www.w3.org/2000/svg">
<path d="M29.0054 192.699C38.2409 198.9 48.703 202 60.3918 202C72.0805 202 82.4705 198.9 91.5617 192.699C100.797 186.499 108.013 177.631 113.208 166.096C118.403 154.416 121 140.717 121 125C121 109.283 118.403 95.6564 113.208 84.1208C108.013 72.441 100.797 63.5009 91.5617 57.3006C82.4705 51.1002 72.0805 48 60.3918 48C48.703 48 38.2409 51.1002 29.0054 57.3006C19.9141 63.5009 12.771 72.441 7.57603 84.1208C2.52534 95.6564 0 109.283 0 125C0 140.717 2.52534 154.416 7.57603 166.096C12.771 177.631 19.9141 186.499 29.0054 192.699Z" fill="#121212"/>
<path d="M61.7889 70.0262V-7.62939e-06H58.2127V70.0262H50.9619V97.6131H69.0398V70.0262H61.7889Z" fill="#FAFAFA"/>
<path d="M68.3222 99.6626H51.678C51.0111 99.6626 50.3866 99.863 49.9995 100.2L19.3889 126.809C18.4121 127.659 19.3874 128.84 21.0674 128.84H98.9328C100.611 128.84 101.588 127.659 100.611 126.809L70.0008 100.2C69.6136 99.863 68.9876 99.6626 68.3222 99.6626Z" fill="#FAFAFA"/>
<path d="M68.813 130.515H51.1888C51.1888 130.515 48.7301 142 60.0001 142C71.2717 142 68.813 130.515 68.813 130.515Z" fill="#FAFAFA"/>
</svg>
